<?xml version="1.0" encoding="UTF-8" standalone="no"?>
<!-- Created with Inkscape (http://www.inkscape.org/) -->

<svg
   xmlns:dc="http://purl.org/dc/elements/1.1/"
   xmlns:cc="http://creativecommons.org/ns#"
   xmlns:rdf="http://www.w3.org/1999/02/22-rdf-syntax-ns#"
   xmlns:svg="http://www.w3.org/2000/svg"
   xmlns="http://www.w3.org/2000/svg"
   xmlns:sodipodi="http://sodipodi.sourceforge.net/DTD/sodipodi-0.dtd"
   xmlns:inkscape="http://www.inkscape.org/namespaces/inkscape"
   width="210mm"
   height="297mm"
   viewBox="0 0 210 297"
   version="1.1"
   id="svg8"
   inkscape:version="0.92.2 (5c3e80d, 2017-08-06)"
   sodipodi:docname="closeButtonV1.svg">
  <defs
     id="defs2" />
  <sodipodi:namedview
     id="base"
     pagecolor="#ffffff"
     bordercolor="#666666"
     borderopacity="1.0"
     inkscape:pageopacity="0.0"
     inkscape:pageshadow="2"
     inkscape:zoom="5.12"
     inkscape:cx="58.221974"
     inkscape:cy="1057.9333"
     inkscape:document-units="mm"
     inkscape:current-layer="layer1"
     showgrid="false"
     inkscape:snap-global="true"
     inkscape:snap-bbox="true"
     inkscape:snap-bbox-midpoints="true"
     inkscape:window-width="1920"
     inkscape:window-height="1001"
     inkscape:window-x="-9"
     inkscape:window-y="-9"
     inkscape:window-maximized="1"
     inkscape:bbox-nodes="true"
     inkscape:snap-page="true" />
  <metadata
     id="metadata5">
    <rdf:RDF>
      <cc:Work
         rdf:about="">
        <dc:format>image/svg+xml</dc:format>
        <dc:type
           rdf:resource="http://purl.org/dc/dcmitype/StillImage" />
        <dc:title></dc:title>
      </cc:Work>
    </rdf:RDF>
  </metadata>
  <g
     inkscape:label="Layer 1"
     inkscape:groupmode="layer"
     id="layer1">
    <rect
       style="opacity:1;fill:#ffffff;fill-opacity:1;stroke-width:0.02143924"
       id="rect862"
       width="9.5290365"
       height="1.9058077"
       x="-12.040552"
       y="-0.95290565"
       ry="0.95290387"
       transform="rotate(-135)" />
    <rect
       style="opacity:1;fill:#ffffff;fill-opacity:1;stroke-width:0.02143924"
       id="rect862-7"
       width="9.5290365"
       height="1.9058077"
       x="-4.7645206"
       y="6.3231287"
       ry="0.95290387"
       transform="rotate(-45)" />
    <path
       style="opacity:1;fill:none;fill-opacity:1;stroke:#000000;stroke-width:0.87900001;stroke-miterlimit:4;stroke-dasharray:none;stroke-opacity:1"
       d="m 1.1718002,0.4395 c -0.18793031,0 -0.37590407,0.0720939 -0.51990596,0.21609581 -0.28800418,0.28800418 -0.28800418,0.75140969 0,1.03941369 L 2.2116125,3.254728 0.65189424,4.8144464 c -0.28800418,0.2880042 -0.28800418,0.7518084 0,1.0398123 0.28800398,0.2880042 0.75180806,0.2880042 1.03981226,0 L 3.2514248,4.2945403 4.8107446,5.8542587 c 0.2880042,0.2880042 0.7518084,0.2880042 1.0398124,0 0.2880041,-0.2880039 0.2880041,-0.7518081 0,-1.0398123 L 4.2908385,3.254728 5.850557,1.6950095 c 0.2880041,-0.288004 0.2880041,-0.75140951 0,-1.03941369 -0.288004,-0.28800397 -0.7518082,-0.28800397 -1.0398124,0 L 3.2514248,2.2153145 1.6917065,0.65559581 C 1.5477045,0.51159393 1.3597306,0.4395 1.1718002,0.4395 Z"
       id="rect862-7-3"
       inkscape:connector-curvature="0" />
  </g>
</svg>
